<mxfile host="app.diagrams.net" modified="2024-06-05T06:31:50.069Z" agent="Mozilla/5.0 (Windows NT 10.0; Win64; x64) AppleWebKit/537.36 (KHTML, like Gecko) Chrome/125.0.0.0 Safari/537.36" etag="-XDgi-xRb1x4LAIzDtCz" version="24.4.13" type="github">
  <diagram name="Page-1" id="V2G0l2j0s6prlGekzDn9">
    <mxGraphModel dx="1434" dy="818" grid="1" gridSize="10" guides="1" tooltips="1" connect="1" arrows="1" fold="1" page="1" pageScale="1" pageWidth="850" pageHeight="1100" math="0" shadow="0">
      <root>
        <mxCell id="0" />
        <mxCell id="1" parent="0" />
        <mxCell id="p5WJenkUSQ0XDLT8csMZ-1" value="&lt;font style=&quot;font-size: 14px;&quot;&gt;Applicant (Member of Public)&lt;/font&gt;" style="swimlane;html=1;startSize=30;horizontal=0;" vertex="1" parent="1">
          <mxGeometry x="90" y="80" width="1690" height="230" as="geometry" />
        </mxCell>
        <mxCell id="p5WJenkUSQ0XDLT8csMZ-2" value="" style="edgeStyle=orthogonalEdgeStyle;rounded=0;orthogonalLoop=1;jettySize=auto;html=1;entryX=0;entryY=0.5;entryDx=0;entryDy=0;entryPerimeter=0;" edge="1" parent="p5WJenkUSQ0XDLT8csMZ-1" source="p5WJenkUSQ0XDLT8csMZ-3" target="p5WJenkUSQ0XDLT8csMZ-8">
          <mxGeometry relative="1" as="geometry">
            <mxPoint x="160" y="55" as="targetPoint" />
          </mxGeometry>
        </mxCell>
        <mxCell id="p5WJenkUSQ0XDLT8csMZ-3" value="" style="points=[[0.145,0.145,0],[0.5,0,0],[0.855,0.145,0],[1,0.5,0],[0.855,0.855,0],[0.5,1,0],[0.145,0.855,0],[0,0.5,0]];shape=mxgraph.bpmn.event;html=1;verticalLabelPosition=bottom;labelBackgroundColor=#ffffff;verticalAlign=top;align=center;perimeter=ellipsePerimeter;outlineConnect=0;aspect=fixed;outline=standard;symbol=general;" vertex="1" parent="p5WJenkUSQ0XDLT8csMZ-1">
          <mxGeometry x="50" y="78" width="50" height="50" as="geometry" />
        </mxCell>
        <mxCell id="p5WJenkUSQ0XDLT8csMZ-4" value="" style="edgeStyle=orthogonalEdgeStyle;rounded=0;orthogonalLoop=1;jettySize=auto;html=1;" edge="1" parent="p5WJenkUSQ0XDLT8csMZ-1" source="p5WJenkUSQ0XDLT8csMZ-6">
          <mxGeometry relative="1" as="geometry">
            <mxPoint x="430" y="140" as="targetPoint" />
          </mxGeometry>
        </mxCell>
        <mxCell id="p5WJenkUSQ0XDLT8csMZ-5" value="Back and forth conversation&lt;div&gt;happen on the ticketing platform&lt;/div&gt;" style="edgeLabel;html=1;align=center;verticalAlign=middle;resizable=0;points=[];" vertex="1" connectable="0" parent="p5WJenkUSQ0XDLT8csMZ-4">
          <mxGeometry x="-0.7464" y="2" relative="1" as="geometry">
            <mxPoint x="88" as="offset" />
          </mxGeometry>
        </mxCell>
        <mxCell id="p5WJenkUSQ0XDLT8csMZ-6" value="&lt;div style=&quot;text-align: center;&quot;&gt;ICT department receives the ticket and sets an appointment&amp;nbsp; date for the applicant&amp;nbsp;&lt;/div&gt;" style="whiteSpace=wrap;html=1;align=left;" vertex="1" parent="p5WJenkUSQ0XDLT8csMZ-1">
          <mxGeometry x="142" y="277" width="160" height="73" as="geometry" />
        </mxCell>
        <mxCell id="p5WJenkUSQ0XDLT8csMZ-7" value="" style="edgeStyle=orthogonalEdgeStyle;rounded=0;orthogonalLoop=1;jettySize=auto;html=1;" edge="1" parent="p5WJenkUSQ0XDLT8csMZ-1" source="p5WJenkUSQ0XDLT8csMZ-8" target="p5WJenkUSQ0XDLT8csMZ-6">
          <mxGeometry relative="1" as="geometry" />
        </mxCell>
        <mxCell id="p5WJenkUSQ0XDLT8csMZ-8" value="Applicant raises a ticket&lt;div&gt;under the ICT department&lt;/div&gt;" style="shape=mxgraph.bpmn.data;labelPosition=center;verticalLabelPosition=bottom;align=center;verticalAlign=top;size=15;html=1;bpmnTransferType=input;" vertex="1" parent="p5WJenkUSQ0XDLT8csMZ-1">
          <mxGeometry x="157" y="69" width="130" height="69" as="geometry" />
        </mxCell>
        <mxCell id="p5WJenkUSQ0XDLT8csMZ-31" value="Provides&lt;div&gt;the OTP&lt;/div&gt;" style="rhombus;whiteSpace=wrap;html=1;" vertex="1" parent="p5WJenkUSQ0XDLT8csMZ-1">
          <mxGeometry x="759" y="105" width="80" height="80" as="geometry" />
        </mxCell>
        <mxCell id="p5WJenkUSQ0XDLT8csMZ-36" value="&lt;b&gt;Process Stalls&lt;/b&gt;" style="text;html=1;align=center;verticalAlign=middle;whiteSpace=wrap;rounded=0;" vertex="1" parent="p5WJenkUSQ0XDLT8csMZ-1">
          <mxGeometry x="820" y="13" width="96" height="30" as="geometry" />
        </mxCell>
        <mxCell id="p5WJenkUSQ0XDLT8csMZ-42" value="Applicant receives an SMS notifying him/ her of a successful fingerprint capture" style="whiteSpace=wrap;html=1;" vertex="1" parent="p5WJenkUSQ0XDLT8csMZ-1">
          <mxGeometry x="1549" y="73" width="120" height="60" as="geometry" />
        </mxCell>
        <mxCell id="p5WJenkUSQ0XDLT8csMZ-14" value="SYSTEM" style="swimlane;horizontal=0;whiteSpace=wrap;html=1;startSize=30;" vertex="1" parent="1">
          <mxGeometry x="90" y="519" width="1690" height="200" as="geometry" />
        </mxCell>
        <mxCell id="p5WJenkUSQ0XDLT8csMZ-15" value="&lt;div&gt;&lt;br&gt;&lt;/div&gt;System saves the captured fingerprints and identifies the default one for purposes of fingerprint signing&lt;br&gt;&amp;nbsp;" style="whiteSpace=wrap;html=1;" vertex="1" parent="p5WJenkUSQ0XDLT8csMZ-14">
          <mxGeometry x="1329" y="69.5" width="160" height="70.5" as="geometry" />
        </mxCell>
        <mxCell id="p5WJenkUSQ0XDLT8csMZ-29" value="The system will generate an OTP and send it to the applicant as a verification mechanism" style="whiteSpace=wrap;html=1;align=center;" vertex="1" parent="p5WJenkUSQ0XDLT8csMZ-14">
          <mxGeometry x="563" y="61" width="165" height="60" as="geometry" />
        </mxCell>
        <mxCell id="p5WJenkUSQ0XDLT8csMZ-19" value="ICT DEPARTMENT" style="swimlane;horizontal=0;whiteSpace=wrap;html=1;startSize=30;" vertex="1" parent="1">
          <mxGeometry x="90" y="310" width="1690" height="210" as="geometry" />
        </mxCell>
        <mxCell id="p5WJenkUSQ0XDLT8csMZ-25" value="He/ She then adds the default fingerprint, selected by the applicant and sets it as default" style="whiteSpace=wrap;html=1;align=center;" vertex="1" parent="p5WJenkUSQ0XDLT8csMZ-19">
          <mxGeometry x="1339" y="53" width="140" height="66.5" as="geometry" />
        </mxCell>
        <mxCell id="p5WJenkUSQ0XDLT8csMZ-33" value="Successful OTP verification will initialize the Fingerprint application and give access to the ICT Officer" style="whiteSpace=wrap;html=1;" vertex="1" parent="p5WJenkUSQ0XDLT8csMZ-19">
          <mxGeometry x="876" y="51" width="170" height="70" as="geometry" />
        </mxCell>
        <mxCell id="p5WJenkUSQ0XDLT8csMZ-20" value="Start" style="text;html=1;align=center;verticalAlign=middle;whiteSpace=wrap;rounded=0;" vertex="1" parent="1">
          <mxGeometry x="134" y="169" width="60" height="30" as="geometry" />
        </mxCell>
        <mxCell id="p5WJenkUSQ0XDLT8csMZ-23" value="" style="edgeStyle=orthogonalEdgeStyle;rounded=0;orthogonalLoop=1;jettySize=auto;html=1;" edge="1" parent="1" source="p5WJenkUSQ0XDLT8csMZ-21" target="p5WJenkUSQ0XDLT8csMZ-28">
          <mxGeometry relative="1" as="geometry">
            <mxPoint x="730" y="360" as="targetPoint" />
          </mxGeometry>
        </mxCell>
        <mxCell id="p5WJenkUSQ0XDLT8csMZ-21" value="&lt;div style=&quot;text-align: center;&quot;&gt;Applicant receives the appointment date and visits the ministry of lands offices&lt;/div&gt;" style="whiteSpace=wrap;html=1;align=left;" vertex="1" parent="1">
          <mxGeometry x="440" y="146" width="160" height="73" as="geometry" />
        </mxCell>
        <mxCell id="p5WJenkUSQ0XDLT8csMZ-26" value="" style="edgeStyle=orthogonalEdgeStyle;rounded=0;orthogonalLoop=1;jettySize=auto;html=1;" edge="1" parent="1" source="p5WJenkUSQ0XDLT8csMZ-24" target="p5WJenkUSQ0XDLT8csMZ-25">
          <mxGeometry relative="1" as="geometry" />
        </mxCell>
        <mxCell id="p5WJenkUSQ0XDLT8csMZ-24" value="&lt;div style=&quot;text-align: center;&quot;&gt;ICT Officer will capture the applicant&#39;s fingerprints (Both hands and each finger will be captured twice)&lt;/div&gt;" style="whiteSpace=wrap;html=1;align=left;" vertex="1" parent="1">
          <mxGeometry x="1204" y="356" width="160" height="80" as="geometry" />
        </mxCell>
        <mxCell id="p5WJenkUSQ0XDLT8csMZ-27" value="" style="edgeStyle=orthogonalEdgeStyle;rounded=0;orthogonalLoop=1;jettySize=auto;html=1;exitX=0.5;exitY=1;exitDx=0;exitDy=0;entryX=0.5;entryY=0;entryDx=0;entryDy=0;" edge="1" parent="1" source="p5WJenkUSQ0XDLT8csMZ-25" target="p5WJenkUSQ0XDLT8csMZ-15">
          <mxGeometry relative="1" as="geometry">
            <mxPoint x="960" y="490" as="sourcePoint" />
            <mxPoint x="1060" y="489" as="targetPoint" />
          </mxGeometry>
        </mxCell>
        <mxCell id="p5WJenkUSQ0XDLT8csMZ-30" value="" style="edgeStyle=orthogonalEdgeStyle;rounded=0;orthogonalLoop=1;jettySize=auto;html=1;" edge="1" parent="1" source="p5WJenkUSQ0XDLT8csMZ-28" target="p5WJenkUSQ0XDLT8csMZ-29">
          <mxGeometry relative="1" as="geometry" />
        </mxCell>
        <mxCell id="p5WJenkUSQ0XDLT8csMZ-28" value="&lt;div style=&quot;text-align: center;&quot;&gt;To initiate the fingerprint capture process the ICT Officer will request for both Ardhisasa ID and the National ID&lt;/div&gt;" style="whiteSpace=wrap;html=1;align=left;" vertex="1" parent="1">
          <mxGeometry x="651" y="361" width="169" height="73" as="geometry" />
        </mxCell>
        <mxCell id="p5WJenkUSQ0XDLT8csMZ-32" value="" style="edgeStyle=orthogonalEdgeStyle;rounded=0;orthogonalLoop=1;jettySize=auto;html=1;" edge="1" parent="1" source="p5WJenkUSQ0XDLT8csMZ-29" target="p5WJenkUSQ0XDLT8csMZ-31">
          <mxGeometry relative="1" as="geometry" />
        </mxCell>
        <mxCell id="p5WJenkUSQ0XDLT8csMZ-35" value="" style="points=[[0.145,0.145,0],[0.5,0,0],[0.855,0.145,0],[1,0.5,0],[0.855,0.855,0],[0.5,1,0],[0.145,0.855,0],[0,0.5,0]];shape=mxgraph.bpmn.event;html=1;verticalLabelPosition=bottom;labelBackgroundColor=#ffffff;verticalAlign=top;align=center;perimeter=ellipsePerimeter;outlineConnect=0;aspect=fixed;outline=end;symbol=terminate2;" vertex="1" parent="1">
          <mxGeometry x="864" y="85" width="50" height="50" as="geometry" />
        </mxCell>
        <mxCell id="p5WJenkUSQ0XDLT8csMZ-38" value="" style="edgeStyle=orthogonalEdgeStyle;rounded=0;orthogonalLoop=1;jettySize=auto;html=1;" edge="1" parent="1" source="p5WJenkUSQ0XDLT8csMZ-31" target="p5WJenkUSQ0XDLT8csMZ-35">
          <mxGeometry relative="1" as="geometry" />
        </mxCell>
        <mxCell id="p5WJenkUSQ0XDLT8csMZ-39" value="False" style="edgeLabel;html=1;align=center;verticalAlign=middle;resizable=0;points=[];" vertex="1" connectable="0" parent="p5WJenkUSQ0XDLT8csMZ-38">
          <mxGeometry x="0.04" relative="1" as="geometry">
            <mxPoint as="offset" />
          </mxGeometry>
        </mxCell>
        <mxCell id="p5WJenkUSQ0XDLT8csMZ-34" value="" style="edgeStyle=orthogonalEdgeStyle;rounded=0;orthogonalLoop=1;jettySize=auto;html=1;" edge="1" parent="1" source="p5WJenkUSQ0XDLT8csMZ-31" target="p5WJenkUSQ0XDLT8csMZ-33">
          <mxGeometry relative="1" as="geometry" />
        </mxCell>
        <mxCell id="p5WJenkUSQ0XDLT8csMZ-40" value="True" style="edgeLabel;html=1;align=center;verticalAlign=middle;resizable=0;points=[];" vertex="1" connectable="0" parent="p5WJenkUSQ0XDLT8csMZ-34">
          <mxGeometry x="-0.4312" y="-2" relative="1" as="geometry">
            <mxPoint y="-2" as="offset" />
          </mxGeometry>
        </mxCell>
        <mxCell id="p5WJenkUSQ0XDLT8csMZ-41" value="" style="edgeStyle=orthogonalEdgeStyle;rounded=0;orthogonalLoop=1;jettySize=auto;html=1;" edge="1" parent="1" source="p5WJenkUSQ0XDLT8csMZ-33" target="p5WJenkUSQ0XDLT8csMZ-24">
          <mxGeometry relative="1" as="geometry" />
        </mxCell>
        <mxCell id="p5WJenkUSQ0XDLT8csMZ-43" value="" style="edgeStyle=orthogonalEdgeStyle;rounded=0;orthogonalLoop=1;jettySize=auto;html=1;" edge="1" parent="1" source="p5WJenkUSQ0XDLT8csMZ-15" target="p5WJenkUSQ0XDLT8csMZ-42">
          <mxGeometry relative="1" as="geometry" />
        </mxCell>
        <mxCell id="p5WJenkUSQ0XDLT8csMZ-45" value="System then sends a&lt;div&gt;success fingerprint capture&lt;/div&gt;&lt;div&gt;notification to the applicant&lt;/div&gt;" style="edgeLabel;html=1;align=center;verticalAlign=middle;resizable=0;points=[];" vertex="1" connectable="0" parent="1">
          <mxGeometry x="1692" y="622" as="geometry" />
        </mxCell>
      </root>
    </mxGraphModel>
  </diagram>
</mxfile>
